# xmcd CD database file
# Copyright (C) 1993-1998 Ti Kan
#
# Track frame offsets:
#	150
#	17782
#	33512
#	50767
#	66670
#	85087
#	100882
#	117200
#	132407
#	148567
#
# Disc length: 2241 seconds
#
# Revision: 1
# Processed by: cddbd v1.4b41PL1 Copyright (c) Steve Scherf et al.
# Submitted via: CDValet v3.31 - Copyright (c) 1997 Greg Leichner
#
DISCID=9008bf0a
DTITLE=Robbie McVee - Grape Vine
DYEAR=1900
DGENRE=
TTITLE0=Heard It Through The Grapevine
TTITLE1=Money - That's All I Want
TTITLE2=Until You Come Back To Me
TTITLE3=My Guy
TTITLE4=Tracks Of My Tears
TTITLE5=Ain't No Mountain High Enough
TTITLE6=Dancing In The Street
TTITLE7=How Sweet It Is
TTITLE8=For Once In My Life
TTITLE9=Get Ready
EXTD=
EXTT0=
EXTT1=
EXTT2=
EXTT3=
EXTT4=
EXTT5=
EXTT6=
EXTT7=
EXTT8=
EXTT9=
PLAYORDER=
